<svg width="174" height="30" viewBox="0 0 174 30" fill="none" xmlns="http://www.w3.org/2000/svg">
<path d="M40.0859 9.5091C39.9828 9.03273 39.8242 8.57098 39.6137 8.13394C39.1385 7.13098 38.4189 6.27282 37.5257 5.64361C36.6325 5.01441 35.5962 4.63578 34.5186 4.54486H23.1383C22.9066 4.54486 22.6844 4.44982 22.5206 4.28063C22.3568 4.11145 22.2647 3.88198 22.2647 3.64272V0.975293C22.2648 0.721619 22.1692 0.477883 21.9982 0.295798C21.8272 0.113714 21.5942 0.00761017 21.3486 0L5.52489 0C4.36541 0.136374 3.26635 0.606397 2.35298 1.3565C1.43961 2.1066 0.748674 3.1066 0.35892 4.24252C0.276332 4.47835 0.208509 4.71942 0.15587 4.96424C0.0506098 5.43434 -0.00168023 5.91542 4.11502e-05 6.39792V18.8914C-9.64561e-05 19.384 0.0553689 19.875 0.165314 20.3544C0.245004 20.7325 0.360463 21.1016 0.510027 21.4564C0.990993 22.6137 1.78989 23.6 2.80791 24.2934C3.82594 24.9867 5.01844 25.3567 6.23793 25.3576H17.0987C17.3304 25.3576 17.5526 25.4527 17.7165 25.6218C17.8803 25.791 17.9723 26.0205 17.9723 26.2598V29.0247C17.9723 29.2834 18.0718 29.5314 18.249 29.7143C18.4261 29.8972 18.6663 30 18.9168 30H33.9991C35.105 30.0004 36.1912 29.6971 37.1462 29.1213C38.1013 28.5454 38.8909 27.7178 39.4343 26.723C39.959 25.7541 40.2369 24.6635 40.2417 23.5533V10.9623C40.2457 10.4732 40.1934 9.98541 40.0859 9.5091ZM35.038 23.6752C35.038 23.9145 34.9459 24.144 34.7821 24.3131C34.6183 24.4823 34.3961 24.5774 34.1644 24.5774H23.1383C22.9066 24.5774 22.6844 24.4823 22.5206 24.3131C22.3568 24.144 22.2647 23.9145 22.2647 23.6752V20.9054C22.2587 20.6551 22.1598 20.4169 21.9884 20.2398C21.817 20.0628 21.5862 19.9607 21.3439 19.9545H6.08682C5.97052 19.9571 5.85489 19.9357 5.74671 19.8915C5.63853 19.8473 5.53999 19.7813 5.45686 19.6973C5.37372 19.6132 5.30768 19.5129 5.2626 19.4021C5.21753 19.2914 5.19432 19.1725 5.19435 19.0523V6.2565C5.19018 6.048 5.25686 5.84458 5.3828 5.68157C5.50874 5.51855 5.68599 5.40623 5.88377 5.36411C6.0165 5.32508 6.15714 5.32508 6.28987 5.36411H16.9335C17.0662 5.32508 17.2068 5.32508 17.3396 5.36411C17.4966 5.40008 17.6405 5.48159 17.7543 5.59907C17.868 5.71655 17.947 5.86511 17.9818 6.02731C18.0196 6.16437 18.0196 6.30962 17.9818 6.44668V8.97269C17.9818 9.23135 18.0813 9.47942 18.2584 9.66233C18.4355 9.84523 18.6757 9.94798 18.9262 9.94798H34.1644C34.3961 9.94798 34.6183 10.043 34.7821 10.2122C34.9459 10.3814 35.038 10.6109 35.038 10.8501V23.6752Z" fill="black"/>
<path d="M55.419 11.2857C55.4036 11.3731 55.4036 11.4626 55.419 11.5501V18.8383C55.419 19.0526 55.502 19.2583 55.6502 19.4106C55.7984 19.563 55.9996 19.6497 56.2103 19.652H65.6482C65.7462 19.652 65.8402 19.6917 65.9096 19.7622C65.9789 19.8327 66.0178 19.9283 66.0178 20.0281V22.5015C66.0186 22.5514 66.0096 22.6009 65.9914 22.6472C65.9731 22.6935 65.946 22.7357 65.9116 22.7712C65.8772 22.8068 65.8362 22.835 65.791 22.8542C65.7458 22.8735 65.6972 22.8834 65.6482 22.8834H55.9619C55.516 22.884 55.0738 22.8024 54.6565 22.6425C54.0594 22.4139 53.53 22.0331 53.1189 21.5368C52.7078 21.0405 52.4288 20.4451 52.3086 19.8077C52.2645 19.5714 52.2423 19.3315 52.2422 19.091V8.99435C52.2422 8.56662 52.4092 8.15641 52.7066 7.85396C53.0039 7.55151 53.4072 7.38159 53.8277 7.38159H65.6482C65.7462 7.38159 65.8402 7.42121 65.9096 7.49172C65.9789 7.56224 66.0178 7.65788 66.0178 7.75761V10.2311C66.0178 10.3308 65.9789 10.4265 65.9096 10.497C65.8402 10.5675 65.7462 10.6071 65.6482 10.6071H56.1987C56.0108 10.6081 55.8294 10.6768 55.6866 10.8011C55.5439 10.9253 55.449 11.097 55.419 11.2857Z" fill="black"/>
<path d="M73.0185 18.8393C73.0184 19.0546 73.1023 19.2611 73.2517 19.4136C73.4011 19.5662 73.6039 19.6522 73.8155 19.653H83.2534C83.3515 19.653 83.4455 19.6926 83.5148 19.7631C83.5842 19.8337 83.6231 19.9293 83.6231 20.029V22.5025C83.6239 22.5524 83.6149 22.6019 83.5966 22.6482C83.5784 22.6945 83.5513 22.7367 83.5169 22.7722C83.4825 22.8077 83.4415 22.836 83.3963 22.8552C83.351 22.8745 83.3025 22.8844 83.2534 22.8844H73.5672C73.3835 22.8842 73.2001 22.8704 73.0185 22.8433C72.257 22.7271 71.5497 22.3738 70.9937 21.8319C70.4378 21.2901 70.0605 20.5864 69.9139 19.8175C69.8731 19.578 69.8547 19.335 69.859 19.0919V11.1603C69.8591 10.9198 69.8813 10.6799 69.9254 10.4436C70.0725 9.67747 70.4485 8.97623 71.0021 8.43571C71.5557 7.89519 72.2599 7.54175 73.0185 7.4237C73.2001 7.39653 73.3835 7.38278 73.5672 7.38257H83.2534C83.3515 7.38257 83.4455 7.42218 83.5148 7.4927C83.5842 7.56322 83.6231 7.65886 83.6231 7.75858V10.2321C83.6231 10.3318 83.5842 10.4274 83.5148 10.4979C83.4455 10.5685 83.3515 10.6081 83.2534 10.6081H73.8155C73.7102 10.6085 73.606 10.63 73.5089 10.6714C73.4118 10.7129 73.3237 10.7734 73.2497 10.8495C73.1756 10.9257 73.1171 11.0159 73.0774 11.1151C73.0377 11.2144 73.0177 11.3206 73.0185 11.4277V18.8393Z" fill="black"/>
<path d="M90.5279 18.7717C90.5287 18.9865 90.6129 19.1922 90.7622 19.3441C90.9116 19.496 91.1139 19.5817 91.325 19.5824H100.76C100.857 19.5816 100.95 19.6193 101.019 19.6874C101.089 19.7554 101.13 19.8485 101.133 19.9467V22.4202C101.134 22.4708 101.126 22.5212 101.108 22.5684C101.09 22.6156 101.062 22.6586 101.027 22.6948C100.993 22.731 100.951 22.7597 100.905 22.7791C100.859 22.7986 100.81 22.8084 100.76 22.808H91.0767C90.893 22.8077 90.7096 22.794 90.5279 22.7668C89.7665 22.6506 89.0592 22.2973 88.5032 21.7555C87.9473 21.2137 87.57 20.5099 87.4234 19.7411C87.3793 19.5048 87.357 19.2648 87.3569 19.0243V11.0927C87.357 10.8522 87.3793 10.6122 87.4234 10.3759C87.5711 9.60817 87.9488 8.90573 88.5047 8.36503C89.0605 7.82434 89.7673 7.47189 90.5279 7.35607C90.7096 7.3289 90.893 7.31516 91.0767 7.31494H100.76C100.858 7.31494 100.952 7.35456 101.021 7.42507C101.091 7.49559 101.13 7.59123 101.13 7.69096V10.1644C101.13 10.2143 101.121 10.2638 101.103 10.3101C101.085 10.3564 101.058 10.3986 101.023 10.4341C100.989 10.4697 100.948 10.4979 100.903 10.5172C100.858 10.5364 100.809 10.5463 100.76 10.5463H91.325C91.1139 10.5471 90.9116 10.6328 90.7622 10.7847C90.6129 10.9365 90.5287 11.1423 90.5279 11.3571V18.7717Z" fill="black"/>
<path d="M127.974 18.7717C127.975 18.987 128.059 19.1932 128.209 19.3452C128.359 19.4972 128.562 19.5825 128.774 19.5825H138.212C138.26 19.5809 138.309 19.5891 138.354 19.6066C138.399 19.624 138.441 19.6504 138.476 19.6843C138.512 19.7181 138.54 19.7587 138.56 19.8037C138.58 19.8488 138.591 19.8974 138.593 19.9468V22.4202C138.593 22.52 138.554 22.6156 138.485 22.6861C138.415 22.7566 138.321 22.7962 138.223 22.7962H128.522C128.339 22.796 128.155 22.7823 127.974 22.7551C127.212 22.6389 126.505 22.2856 125.949 21.7438C125.393 21.202 125.016 20.4982 124.869 19.7294C124.825 19.4931 124.803 19.2531 124.803 19.0126V11.081C124.803 10.8405 124.825 10.6005 124.869 10.3642C125.019 9.59862 125.398 8.89877 125.953 8.36034C126.509 7.82191 127.215 7.47119 127.974 7.35611C128.155 7.32895 128.339 7.3152 128.522 7.31498H138.209C138.258 7.31301 138.308 7.32127 138.355 7.33928C138.401 7.35729 138.444 7.38467 138.48 7.41979C138.515 7.4549 138.544 7.49702 138.563 7.54363C138.583 7.59023 138.593 7.64036 138.593 7.691V10.1645C138.594 10.2156 138.584 10.2664 138.565 10.3137C138.546 10.361 138.518 10.4038 138.482 10.4395C138.446 10.4753 138.403 10.5032 138.356 10.5216C138.309 10.5399 138.259 10.5484 138.209 10.5464H128.774C128.563 10.5471 128.36 10.6328 128.211 10.7847C128.062 10.9366 127.977 11.1424 127.977 11.3572L127.974 18.7717Z" fill="black"/>
<path d="M64.7961 13.8277V16.2982C64.7961 16.3979 64.7572 16.4936 64.6879 16.5641C64.6185 16.6346 64.5245 16.6742 64.4265 16.6742H57.4722C57.3742 16.6742 57.2801 16.6346 57.2108 16.5641C57.1415 16.4936 57.1026 16.3979 57.1026 16.2982V13.8277C57.1022 13.7781 57.1114 13.7288 57.1299 13.6829C57.1483 13.6369 57.1754 13.5951 57.2098 13.5599C57.2442 13.5247 57.285 13.4967 57.3301 13.4776C57.3751 13.4586 57.4234 13.4487 57.4722 13.4487H64.4265C64.4753 13.4487 64.5236 13.4586 64.5686 13.4776C64.6136 13.4967 64.6545 13.5247 64.6889 13.5599C64.7232 13.5951 64.7504 13.6369 64.7688 13.6829C64.7872 13.7288 64.7965 13.7781 64.7961 13.8277Z" fill="black"/>
<path d="M157.275 9.10696V22.4996C157.276 22.5497 157.267 22.5995 157.249 22.6462C157.231 22.6928 157.204 22.7353 157.17 22.7712C157.135 22.807 157.094 22.8355 157.049 22.855C157.003 22.8744 156.955 22.8844 156.905 22.8844H154.477C154.378 22.8844 154.284 22.8448 154.215 22.7743C154.146 22.7038 154.107 22.6081 154.107 22.5084V11.5951C154.106 11.3823 154.024 11.1783 153.877 11.0268C153.73 10.8752 153.53 10.7882 153.321 10.7843H149.125C148.139 10.7843 147.192 11.183 146.495 11.8926C145.797 12.6021 145.405 13.5645 145.405 14.568V22.4996C145.407 22.5497 145.398 22.5995 145.38 22.6462C145.362 22.6928 145.335 22.7353 145.3 22.7712C145.266 22.807 145.225 22.8355 145.179 22.855C145.134 22.8744 145.085 22.8844 145.036 22.8844H142.604C142.506 22.8844 142.412 22.8448 142.343 22.7743C142.273 22.7038 142.234 22.6081 142.234 22.5084V13.9452C142.235 12.2517 142.897 10.6277 144.074 9.43023C145.251 8.23272 146.848 7.55962 148.513 7.55884H155.753C156.157 7.55884 156.544 7.72194 156.829 8.01227C157.115 8.3026 157.275 8.69638 157.275 9.10696Z" fill="black"/>
<path d="M114.761 7.3562H110.579C109.018 7.36085 107.522 7.99372 106.419 9.11657C105.315 10.2394 104.693 11.761 104.688 13.3489V16.927C104.693 18.5149 105.315 20.0365 106.419 21.1593C107.522 22.2822 109.018 22.9151 110.579 22.9197H114.755C116.317 22.9151 117.812 22.2822 118.916 21.1593C120.02 20.0365 120.642 18.5149 120.647 16.927V13.3489C120.642 11.762 120.021 10.2413 118.918 9.11864C117.816 7.99595 116.321 7.3624 114.761 7.3562ZM117.594 16.3718C117.594 17.3067 117.229 18.2033 116.579 18.8644C115.929 19.5255 115.048 19.8969 114.129 19.8969H111.218C110.299 19.8969 109.417 19.5255 108.767 18.8644C108.117 18.2033 107.752 17.3067 107.752 16.3718V13.9042C107.752 12.9692 108.117 12.0726 108.767 11.4115C109.417 10.7504 110.299 10.379 111.218 10.379H114.129C115.048 10.379 115.929 10.7504 116.579 11.4115C117.229 12.0726 117.594 12.9692 117.594 13.9042V16.3718Z" fill="black"/>
<path d="M173.667 7.93485V10.4083C173.667 10.5081 173.628 10.6037 173.559 10.6742C173.489 10.7447 173.395 10.7843 173.297 10.7843H165.662C165.452 10.7874 165.252 10.8741 165.104 11.0257C164.957 11.1774 164.874 11.3818 164.873 11.5951V22.4996C164.874 22.5504 164.865 22.601 164.847 22.6483C164.828 22.6955 164.8 22.7384 164.765 22.7744C164.73 22.8104 164.687 22.8387 164.641 22.8576C164.595 22.8765 164.545 22.8856 164.495 22.8844H162.063C162.014 22.884 161.966 22.8737 161.921 22.8541C161.875 22.8345 161.835 22.8059 161.801 22.7701C161.766 22.7343 161.74 22.692 161.722 22.6455C161.704 22.5991 161.695 22.5494 161.696 22.4996V11.3366C161.696 11.0961 161.719 10.8561 161.763 10.6198C161.906 9.87959 162.262 9.19946 162.787 8.66629C163.312 8.13311 163.981 7.77108 164.709 7.6264C164.941 7.58155 165.177 7.55893 165.413 7.55884H173.297C173.395 7.55884 173.489 7.59845 173.559 7.66897C173.628 7.73949 173.667 7.83513 173.667 7.93485Z" fill="black"/>
</svg>
